<svg width="100" height="30" viewBox="0 0 100 30" fill="none" xmlns="http://www.w3.org/2000/svg">
<rect width="100" height="30" rx="5" fill="#E7E7E7"/>
<path d="M33.1994 11.18H29.9234V20H28.7474V11.18H25.4714V10.088H33.1994V11.18ZM32.4559 16.724C32.4559 16.2107 32.5445 15.744 32.7219 15.324C32.8992 14.904 33.1419 14.5447 33.4499 14.246C33.7579 13.938 34.1265 13.7 34.5559 13.532C34.9852 13.364 35.4519 13.28 35.9559 13.28C36.4599 13.28 36.9265 13.364 37.3559 13.532C37.7852 13.7 38.1539 13.938 38.4619 14.246C38.7699 14.5447 39.0125 14.904 39.1899 15.324C39.3672 15.744 39.4559 16.2107 39.4559 16.724C39.4559 17.2373 39.3672 17.704 39.1899 18.124C39.0125 18.544 38.7699 18.908 38.4619 19.216C38.1539 19.5147 37.7852 19.748 37.3559 19.916C36.9265 20.084 36.4599 20.168 35.9559 20.168C35.4519 20.168 34.9852 20.084 34.5559 19.916C34.1265 19.748 33.7579 19.5147 33.4499 19.216C33.1419 18.908 32.8992 18.544 32.7219 18.124C32.5445 17.704 32.4559 17.2373 32.4559 16.724ZM33.6319 16.724C33.6319 17.0693 33.6832 17.3913 33.7859 17.69C33.8979 17.9793 34.0565 18.236 34.2619 18.46C34.4672 18.6747 34.7099 18.8473 34.9899 18.978C35.2792 19.0993 35.6012 19.16 35.9559 19.16C36.3105 19.16 36.6279 19.0993 36.9079 18.978C37.1972 18.8473 37.4445 18.6747 37.6499 18.46C37.8552 18.236 38.0092 17.9793 38.1119 17.69C38.2239 17.3913 38.2799 17.0693 38.2799 16.724C38.2799 16.3787 38.2239 16.0613 38.1119 15.772C38.0092 15.4733 37.8552 15.2167 37.6499 15.002C37.4445 14.778 37.1972 14.6053 36.9079 14.484C36.6279 14.3533 36.3105 14.288 35.9559 14.288C35.6012 14.288 35.2792 14.3533 34.9899 14.484C34.7099 14.6053 34.4672 14.778 34.2619 15.002C34.0565 15.2167 33.8979 15.4733 33.7859 15.772C33.6832 16.0613 33.6319 16.3787 33.6319 16.724ZM46.5924 18.838H46.5644C46.359 19.2113 46.0324 19.5287 45.5844 19.79C45.1457 20.042 44.6324 20.168 44.0444 20.168C43.587 20.168 43.1577 20.084 42.7564 19.916C42.355 19.7387 42.005 19.496 41.7064 19.188C41.417 18.88 41.1884 18.516 41.0204 18.096C40.8524 17.676 40.7684 17.2187 40.7684 16.724C40.7684 16.2293 40.8524 15.772 41.0204 15.352C41.1884 14.932 41.4217 14.568 41.7204 14.26C42.019 13.952 42.3784 13.714 42.7984 13.546C43.2277 13.3687 43.699 13.28 44.2124 13.28C44.6884 13.28 45.1224 13.378 45.5144 13.574C45.9157 13.77 46.2657 14.0453 46.5644 14.4H46.5924V9.416H47.6844V20H46.5924V18.838ZM46.5924 16.724C46.5924 16.3787 46.5364 16.0613 46.4244 15.772C46.3217 15.4733 46.1677 15.2167 45.9624 15.002C45.757 14.778 45.5097 14.6053 45.2204 14.484C44.9404 14.3533 44.623 14.288 44.2684 14.288C43.9137 14.288 43.5917 14.3533 43.3024 14.484C43.0224 14.6053 42.7797 14.778 42.5744 15.002C42.369 15.2167 42.2104 15.4733 42.0984 15.772C41.9957 16.0613 41.9444 16.3787 41.9444 16.724C41.9444 17.0693 41.9957 17.3913 42.0984 17.69C42.2104 17.9793 42.369 18.236 42.5744 18.46C42.7797 18.6747 43.0224 18.8473 43.3024 18.978C43.5917 19.0993 43.9137 19.16 44.2684 19.16C44.623 19.16 44.9404 19.0993 45.2204 18.978C45.5097 18.8473 45.757 18.6747 45.9624 18.46C46.1677 18.236 46.3217 17.9793 46.4244 17.69C46.5364 17.3913 46.5924 17.0693 46.5924 16.724ZM49.6209 14.288C49.9569 13.9427 50.3536 13.6907 50.8109 13.532C51.2776 13.364 51.7489 13.28 52.2249 13.28C53.1956 13.28 53.8956 13.5087 54.3249 13.966C54.7543 14.4233 54.9689 15.1187 54.9689 16.052V18.866C54.9689 19.0527 54.9783 19.2487 54.9969 19.454C55.0156 19.65 55.0389 19.832 55.0669 20H54.0169C53.9796 19.8507 53.9563 19.6873 53.9469 19.51C53.9469 19.3233 53.9469 19.16 53.9469 19.02H53.9189C53.7043 19.356 53.4149 19.6313 53.0509 19.846C52.6963 20.0607 52.2669 20.168 51.7629 20.168C51.4269 20.168 51.1096 20.126 50.8109 20.042C50.5216 19.958 50.2649 19.8367 50.0409 19.678C49.8263 19.51 49.6536 19.3047 49.5229 19.062C49.3923 18.8193 49.3269 18.5393 49.3269 18.222C49.3269 17.6807 49.4669 17.256 49.7469 16.948C50.0269 16.64 50.3723 16.4113 50.7829 16.262C51.2029 16.1127 51.6509 16.0193 52.1269 15.982C52.6123 15.9447 53.0556 15.926 53.4569 15.926H53.8769V15.73C53.8769 15.254 53.7323 14.8947 53.4429 14.652C53.1629 14.4093 52.7663 14.288 52.2529 14.288C51.8983 14.288 51.5483 14.3487 51.2029 14.47C50.8669 14.582 50.5683 14.7593 50.3069 15.002L49.6209 14.288ZM52.7849 16.85C52.0849 16.85 51.5296 16.948 51.1189 17.144C50.7083 17.34 50.5029 17.662 50.5029 18.11C50.5029 18.5207 50.6383 18.8147 50.9089 18.992C51.1889 19.16 51.5343 19.244 51.9449 19.244C52.2623 19.244 52.5376 19.1927 52.7709 19.09C53.0136 18.978 53.2143 18.8333 53.3729 18.656C53.5316 18.4787 53.6529 18.2733 53.7369 18.04C53.8209 17.7973 53.8676 17.5407 53.8769 17.27V16.85H52.7849ZM59.3727 21.498C59.2607 21.778 59.144 22.03 59.0227 22.254C58.9107 22.4873 58.7707 22.6833 58.6027 22.842C58.444 23.01 58.248 23.136 58.0147 23.22C57.7907 23.3133 57.5154 23.36 57.1887 23.36C57.03 23.36 56.862 23.3507 56.6847 23.332C56.5167 23.3133 56.358 23.2667 56.2087 23.192L56.3487 22.24C56.4607 22.2867 56.5774 22.3147 56.6987 22.324C56.82 22.3427 56.96 22.352 57.1187 22.352C57.4734 22.352 57.7347 22.254 57.9027 22.058C58.0707 21.862 58.2154 21.6007 58.3367 21.274L58.7847 20.042L56.0687 13.448H57.3427L59.3727 18.586H59.4007L61.3467 13.448H62.5367L59.3727 21.498Z" fill="black"/>
</svg>
