<svg width="127" height="40" viewBox="0 0 127 40" fill="none" xmlns="http://www.w3.org/2000/svg">
<path d="M59.984 19.4489C59.984 18.0889 60.208 16.8569 60.656 15.7529C61.104 14.6329 61.72 13.6809 62.504 12.8969C63.304 12.1129 64.248 11.5129 65.336 11.0969C66.44 10.6649 67.648 10.4489 68.96 10.4489C70.288 10.4329 71.504 10.6329 72.608 11.0489C73.712 11.4489 74.664 12.0409 75.464 12.8249C76.264 13.6089 76.888 14.5529 77.336 15.6569C77.784 16.7609 78.008 17.9929 78.008 19.3529C78.008 20.6809 77.784 21.8889 77.336 22.9769C76.888 24.0649 76.264 25.0009 75.464 25.7849C74.664 26.5689 73.712 27.1849 72.608 27.6329C71.504 28.0649 70.288 28.2889 68.96 28.3049C67.648 28.3049 66.44 28.0969 65.336 27.6809C64.248 27.2489 63.304 26.6489 62.504 25.8809C61.72 25.0969 61.104 24.1609 60.656 23.0729C60.208 21.9849 59.984 20.7769 59.984 19.4489ZM63.152 19.2569C63.152 20.1689 63.288 21.0089 63.56 21.7769C63.848 22.5449 64.248 23.2089 64.76 23.7689C65.272 24.3289 65.88 24.7689 66.584 25.0889C67.304 25.4089 68.104 25.5689 68.984 25.5689C69.864 25.5689 70.664 25.4089 71.384 25.0889C72.104 24.7689 72.72 24.3289 73.232 23.7689C73.744 23.2089 74.136 22.5449 74.408 21.7769C74.696 21.0089 74.84 20.1689 74.84 19.2569C74.84 18.4089 74.696 17.6169 74.408 16.8809C74.136 16.1449 73.744 15.5049 73.232 14.9609C72.72 14.4009 72.104 13.9689 71.384 13.6649C70.664 13.3449 69.864 13.1849 68.984 13.1849C68.104 13.1849 67.304 13.3449 66.584 13.6649C65.88 13.9689 65.272 14.4009 64.76 14.9609C64.248 15.5049 63.848 16.1449 63.56 16.8809C63.288 17.6169 63.152 18.4089 63.152 19.2569ZM80.6242 16.3529H83.5042V18.1769H83.5522C83.8722 17.5049 84.3282 16.9849 84.9202 16.6169C85.5122 16.2489 86.1922 16.0649 86.9602 16.0649C87.1362 16.0649 87.3042 16.0809 87.4642 16.1129C87.6402 16.1449 87.8162 16.1849 87.9922 16.2329V19.0169C87.7522 18.9529 87.5122 18.9049 87.2722 18.8729C87.0482 18.8249 86.8242 18.8009 86.6002 18.8009C85.9282 18.8009 85.3842 18.9289 84.9682 19.1849C84.5682 19.4249 84.2562 19.7049 84.0322 20.0249C83.8242 20.3449 83.6802 20.6649 83.6002 20.9849C83.5362 21.3049 83.5042 21.5449 83.5042 21.7049V27.8729H80.6242V16.3529ZM98.6504 26.1449H98.6024C98.1864 26.8489 97.6264 27.3609 96.9224 27.6809C96.2184 28.0009 95.4584 28.1609 94.6424 28.1609C93.7464 28.1609 92.9464 28.0089 92.2424 27.7049C91.5544 27.3849 90.9624 26.9529 90.4664 26.4089C89.9704 25.8649 89.5944 25.2249 89.3384 24.4889C89.0824 23.7529 88.9544 22.9609 88.9544 22.1129C88.9544 21.2649 89.0904 20.4729 89.3624 19.7369C89.6344 19.0009 90.0104 18.3609 90.4904 17.8169C90.9864 17.2729 91.5784 16.8489 92.2664 16.5449C92.9544 16.2249 93.7064 16.0649 94.5224 16.0649C95.0664 16.0649 95.5464 16.1209 95.9624 16.2329C96.3784 16.3449 96.7464 16.4889 97.0664 16.6649C97.3864 16.8409 97.6584 17.0329 97.8824 17.2409C98.1064 17.4329 98.2904 17.6249 98.4344 17.8169H98.5064V9.72892H101.386V27.8729H98.6504V26.1449ZM91.8344 22.1129C91.8344 22.5609 91.9064 22.9929 92.0504 23.4089C92.2104 23.8249 92.4344 24.1929 92.7224 24.5129C93.0264 24.8329 93.3864 25.0889 93.8024 25.2809C94.2184 25.4729 94.6904 25.5689 95.2184 25.5689C95.7464 25.5689 96.2184 25.4729 96.6344 25.2809C97.0504 25.0889 97.4024 24.8329 97.6904 24.5129C97.9944 24.1929 98.2184 23.8249 98.3624 23.4089C98.5224 22.9929 98.6024 22.5609 98.6024 22.1129C98.6024 21.6649 98.5224 21.2329 98.3624 20.8169C98.2184 20.4009 97.9944 20.0329 97.6904 19.7129C97.4024 19.3929 97.0504 19.1369 96.6344 18.9449C96.2184 18.7529 95.7464 18.6569 95.2184 18.6569C94.6904 18.6569 94.2184 18.7529 93.8024 18.9449C93.3864 19.1369 93.0264 19.3929 92.7224 19.7129C92.4344 20.0329 92.2104 20.4009 92.0504 20.8169C91.9064 21.2329 91.8344 21.6649 91.8344 22.1129ZM106.952 23.1209C107.048 23.9849 107.384 24.6569 107.96 25.1369C108.536 25.6169 109.232 25.8569 110.048 25.8569C110.768 25.8569 111.368 25.7129 111.848 25.4249C112.344 25.1209 112.776 24.7449 113.144 24.2969L115.208 25.8569C114.536 26.6889 113.784 27.2809 112.952 27.6329C112.12 27.9849 111.248 28.1609 110.336 28.1609C109.472 28.1609 108.656 28.0169 107.888 27.7289C107.12 27.4409 106.456 27.0329 105.896 26.5049C105.336 25.9769 104.888 25.3449 104.552 24.6089C104.232 23.8569 104.072 23.0249 104.072 22.1129C104.072 21.2009 104.232 20.3769 104.552 19.6409C104.888 18.8889 105.336 18.2489 105.896 17.7209C106.456 17.1929 107.12 16.7849 107.888 16.4969C108.656 16.2089 109.472 16.0649 110.336 16.0649C111.136 16.0649 111.864 16.2089 112.52 16.4969C113.192 16.7689 113.76 17.1689 114.224 17.6969C114.704 18.2249 115.072 18.8809 115.328 19.6649C115.6 20.4329 115.736 21.3209 115.736 22.3289V23.1209H106.952ZM112.856 20.9609C112.84 20.1129 112.576 19.4489 112.064 18.9689C111.552 18.4729 110.84 18.2249 109.928 18.2249C109.064 18.2249 108.376 18.4729 107.864 18.9689C107.368 19.4649 107.064 20.1289 106.952 20.9609H112.856ZM118.429 16.3529H121.309V18.1769H121.357C121.677 17.5049 122.133 16.9849 122.725 16.6169C123.317 16.2489 123.997 16.0649 124.765 16.0649C124.941 16.0649 125.109 16.0809 125.269 16.1129C125.445 16.1449 125.621 16.1849 125.797 16.2329V19.0169C125.557 18.9529 125.317 18.9049 125.077 18.8729C124.853 18.8249 124.629 18.8009 124.405 18.8009C123.733 18.8009 123.189 18.9289 122.773 19.1849C122.373 19.4249 122.061 19.7049 121.837 20.0249C121.629 20.3449 121.485 20.6649 121.405 20.9849C121.341 21.3049 121.309 21.5449 121.309 21.7049V27.8729H118.429V16.3529Z" fill="black"/>
<path d="M38 18.6667H32V3.33333C31.9977 1.49316 30.5068 0.00227865 28.6667 0H6.66666C5.19401 0 3.99999 1.19401 3.99999 2.66667V10.6667H1.99999C1.63183 10.6667 1.33333 10.9652 1.33333 11.3333V15.3333C1.33333 15.7015 1.63183 16 1.99999 16H3.99999V23.3333C3.99999 23.7015 4.2985 24 4.66666 24H7.99999V37.3333C7.99999 38.806 9.19401 40 10.6667 40H32.6667C34.1393 40 35.3333 38.806 35.3333 37.3333C35.3333 35.8607 34.1393 34.6667 32.6667 34.6667H32V24H38C38.3682 24 38.6667 23.7015 38.6667 23.3333V19.3333C38.6667 18.9652 38.3682 18.6667 38 18.6667ZM5.33333 2.66667C5.33333 1.93034 5.93033 1.33333 6.66666 1.33333C7.40299 1.33333 7.99999 1.93034 7.99999 2.66667V10.6667H5.33333V2.66667ZM2.66666 12H21.3333C21.6686 12 21.9518 11.7513 21.9948 11.4186L24.292 13.3333L21.9948 15.248C21.9518 14.9154 21.6686 14.6667 21.3333 14.6667H2.66666V12ZM5.33333 22.6667V16H7.99999V22.6667H5.33333ZM34 37.3333C34 38.0697 33.403 38.6667 32.6667 38.6667H12.9753C13.2106 38.2617 13.334 37.8018 13.3333 37.3333V36H32.6667C33.403 36 34 36.597 34 37.3333ZM30.6667 34.6667H12.6667C12.2985 34.6667 12 34.9652 12 35.3333V37.3333C12 38.0697 11.403 38.6667 10.6667 38.6667C9.93033 38.6667 9.33333 38.0697 9.33333 37.3333V16H20.6667V16.6667C20.6667 16.9255 20.8164 17.1611 21.0508 17.2708C21.2852 17.3805 21.5618 17.3447 21.7607 17.1787L25.7607 13.8454C25.9124 13.7188 26.0003 13.5312 26.0003 13.3333C26.0003 13.1354 25.9124 12.9479 25.7607 12.8213L21.7607 9.48796C21.5618 9.32194 21.2852 9.28613 21.0508 9.39583C20.8164 9.50553 20.6667 9.74121 20.6667 10V10.6667H9.33333V2.66667C9.33105 2.19727 9.20344 1.73698 8.96386 1.33333H28.6667C29.7712 1.33333 30.6667 2.22884 30.6667 3.33333V18.6667H19.3333V18C19.3333 17.7412 19.1836 17.5055 18.9492 17.3958C18.7148 17.2861 18.4381 17.3219 18.2393 17.488L14.2393 20.8213C14.0876 20.9479 13.9997 21.1354 13.9997 21.3333C13.9997 21.5312 14.0876 21.7188 14.2393 21.8454L18.2393 25.1787C18.4381 25.3447 18.7148 25.3805 18.9492 25.2708C19.1836 25.1611 19.3333 24.9255 19.3333 24.6667V24H30.6667V34.6667ZM37.3333 22.6667H18.6667C18.5807 22.667 18.4958 22.6842 18.4167 22.7174C18.3922 22.7301 18.3688 22.7445 18.346 22.7601C18.2982 22.7848 18.2532 22.8151 18.2126 22.8506C18.1911 22.8747 18.1712 22.9001 18.1533 22.9268C18.1208 22.9642 18.0931 23.0052 18.07 23.0495C18.057 23.0807 18.0469 23.1133 18.0394 23.1468C18.0254 23.1794 18.0143 23.2132 18.0065 23.248L15.708 21.3333L18.0052 19.4186C18.013 19.4535 18.0241 19.4873 18.0381 19.5199C18.0452 19.5534 18.0557 19.5859 18.0687 19.6172C18.0915 19.6615 18.1195 19.7025 18.152 19.7399C18.1699 19.7666 18.1898 19.792 18.2113 19.8161C18.2519 19.8516 18.2969 19.8818 18.3447 19.9066C18.3675 19.9222 18.3909 19.9365 18.4154 19.9492C18.4948 19.9827 18.5804 20 18.6667 20H37.3333V22.6667Z" fill="#00E016"/>
<path d="M12 4H18.6667V5.33333H12V4Z" fill="#00E016"/>
<path d="M12 6.66669H18.6667V8.00002H12V6.66669Z" fill="#00E016"/>
<path d="M14.6667 29.3333H28V30.6666H14.6667V29.3333Z" fill="#00E016"/>
<path d="M14.6667 32H28V33.3333H14.6667V32Z" fill="#00E016"/>
<path d="M24 26.6667H28V28H24V26.6667Z" fill="#00E016"/>
</svg>
