<svg width="193" height="30" viewBox="0 0 193 30" fill="none" xmlns="http://www.w3.org/2000/svg">
<rect width="193" height="30" rx="5" fill="#E7E7E7"/>
<path d="M52.4223 11.838C52.2263 11.5207 51.965 11.292 51.6383 11.152C51.3117 11.0027 50.971 10.928 50.6163 10.928C50.355 10.928 50.0983 10.9607 49.8463 11.026C49.5943 11.0913 49.3657 11.1893 49.1603 11.32C48.9643 11.4507 48.8057 11.6233 48.6843 11.838C48.563 12.0527 48.5023 12.3047 48.5023 12.594C48.5023 12.818 48.535 13.0187 48.6003 13.196C48.675 13.364 48.7917 13.518 48.9503 13.658C49.109 13.798 49.3237 13.9287 49.5943 14.05C49.865 14.1713 50.1963 14.2927 50.5883 14.414C50.971 14.5353 51.3397 14.666 51.6943 14.806C52.0583 14.946 52.3757 15.1233 52.6463 15.338C52.9263 15.5527 53.1457 15.8233 53.3043 16.15C53.4723 16.4673 53.5563 16.8687 53.5563 17.354C53.5563 17.8487 53.4583 18.278 53.2623 18.642C53.0663 19.006 52.805 19.3093 52.4783 19.552C52.161 19.7853 51.7923 19.958 51.3723 20.07C50.9523 20.1913 50.5183 20.252 50.0703 20.252C49.781 20.252 49.4917 20.224 49.2023 20.168C48.913 20.1213 48.633 20.0467 48.3623 19.944C48.101 19.832 47.8537 19.692 47.6203 19.524C47.387 19.3467 47.1863 19.132 47.0183 18.88L48.0263 18.054C48.241 18.418 48.5397 18.6933 48.9223 18.88C49.305 19.0667 49.711 19.16 50.1403 19.16C50.3923 19.16 50.6443 19.1227 50.8963 19.048C51.1577 18.9733 51.391 18.866 51.5963 18.726C51.8017 18.5767 51.9697 18.3947 52.1003 18.18C52.231 17.9653 52.2963 17.718 52.2963 17.438C52.2963 17.13 52.245 16.8827 52.1423 16.696C52.0397 16.5 51.881 16.332 51.6663 16.192C51.4517 16.052 51.181 15.926 50.8543 15.814C50.5277 15.702 50.145 15.5713 49.7063 15.422C49.3517 15.31 49.025 15.184 48.7263 15.044C48.4277 14.8947 48.1663 14.7173 47.9423 14.512C47.7277 14.2973 47.555 14.0453 47.4243 13.756C47.303 13.4573 47.2423 13.1027 47.2423 12.692C47.2423 12.216 47.3357 11.8007 47.5223 11.446C47.709 11.0913 47.961 10.7973 48.2783 10.564C48.5957 10.3213 48.955 10.1393 49.3563 10.018C49.7577 9.89667 50.1777 9.836 50.6163 9.836C51.1763 9.836 51.685 9.92467 52.1423 10.102C52.609 10.27 53.0243 10.5687 53.3883 10.998L52.4223 11.838ZM61.1536 18.81C60.7616 19.314 60.3323 19.6687 59.8656 19.874C59.399 20.07 58.8576 20.168 58.2416 20.168C57.7283 20.168 57.2663 20.0793 56.8556 19.902C56.445 19.7153 56.095 19.468 55.8056 19.16C55.5256 18.852 55.3063 18.488 55.1476 18.068C54.9983 17.648 54.9236 17.2 54.9236 16.724C54.9236 16.22 55.0076 15.758 55.1756 15.338C55.3436 14.9087 55.577 14.5447 55.8756 14.246C56.1743 13.938 56.529 13.7 56.9396 13.532C57.3503 13.364 57.7983 13.28 58.2836 13.28C58.741 13.28 59.161 13.3593 59.5436 13.518C59.9263 13.6673 60.253 13.8913 60.5236 14.19C60.8036 14.4793 61.0183 14.8387 61.1676 15.268C61.317 15.688 61.3916 16.1687 61.3916 16.71V17.06H56.0996C56.1183 17.34 56.1836 17.6107 56.2956 17.872C56.417 18.124 56.571 18.348 56.7576 18.544C56.9443 18.7307 57.1636 18.88 57.4156 18.992C57.6676 19.104 57.943 19.16 58.2416 19.16C58.7176 19.16 59.119 19.076 59.4456 18.908C59.7723 18.74 60.0663 18.4927 60.3276 18.166L61.1536 18.81ZM60.2156 16.136C60.197 15.576 60.015 15.128 59.6696 14.792C59.3243 14.456 58.8483 14.288 58.2416 14.288C57.635 14.288 57.145 14.456 56.7716 14.792C56.3983 15.128 56.1743 15.576 56.0996 16.136H60.2156ZM62.9969 14.288C63.3329 13.9427 63.7296 13.6907 64.1869 13.532C64.6536 13.364 65.1249 13.28 65.6009 13.28C66.5716 13.28 67.2716 13.5087 67.7009 13.966C68.1303 14.4233 68.3449 15.1187 68.3449 16.052V18.866C68.3449 19.0527 68.3543 19.2487 68.3729 19.454C68.3916 19.65 68.4149 19.832 68.4429 20H67.3929C67.3556 19.8507 67.3323 19.6873 67.3229 19.51C67.3229 19.3233 67.3229 19.16 67.3229 19.02H67.2949C67.0803 19.356 66.7909 19.6313 66.4269 19.846C66.0723 20.0607 65.6429 20.168 65.1389 20.168C64.8029 20.168 64.4856 20.126 64.1869 20.042C63.8976 19.958 63.6409 19.8367 63.4169 19.678C63.2023 19.51 63.0296 19.3047 62.8989 19.062C62.7683 18.8193 62.7029 18.5393 62.7029 18.222C62.7029 17.6807 62.8429 17.256 63.1229 16.948C63.4029 16.64 63.7483 16.4113 64.1589 16.262C64.5789 16.1127 65.0269 16.0193 65.5029 15.982C65.9883 15.9447 66.4316 15.926 66.8329 15.926H67.2529V15.73C67.2529 15.254 67.1083 14.8947 66.8189 14.652C66.5389 14.4093 66.1423 14.288 65.6289 14.288C65.2743 14.288 64.9243 14.3487 64.5789 14.47C64.2429 14.582 63.9443 14.7593 63.6829 15.002L62.9969 14.288ZM66.1609 16.85C65.4609 16.85 64.9056 16.948 64.4949 17.144C64.0843 17.34 63.8789 17.662 63.8789 18.11C63.8789 18.5207 64.0143 18.8147 64.2849 18.992C64.5649 19.16 64.9103 19.244 65.3209 19.244C65.6383 19.244 65.9136 19.1927 66.1469 19.09C66.3896 18.978 66.5903 18.8333 66.7489 18.656C66.9076 18.4787 67.0289 18.2733 67.1129 18.04C67.1969 17.7973 67.2436 17.5407 67.2529 17.27V16.85H66.1609ZM70.3407 15.002C70.3407 14.7033 70.3314 14.4233 70.3127 14.162C70.294 13.9007 70.2847 13.6627 70.2847 13.448H71.3207C71.3207 13.6253 71.3254 13.8027 71.3347 13.98C71.344 14.1573 71.3487 14.3393 71.3487 14.526H71.3767C71.4514 14.3673 71.554 14.2133 71.6847 14.064C71.8247 13.9147 71.988 13.784 72.1747 13.672C72.3614 13.5507 72.5714 13.4573 72.8047 13.392C73.038 13.3173 73.29 13.28 73.5607 13.28C73.6354 13.28 73.71 13.2847 73.7847 13.294C73.8594 13.3033 73.934 13.322 74.0087 13.35L73.9387 14.456C73.752 14.4 73.556 14.372 73.3507 14.372C72.6787 14.372 72.1887 14.5913 71.8807 15.03C71.582 15.4593 71.4327 16.052 71.4327 16.808V20H70.3407V15.002ZM79.6785 15.086C79.4451 14.806 79.1931 14.6053 78.9225 14.484C78.6518 14.3533 78.3531 14.288 78.0265 14.288C77.6625 14.288 77.3405 14.3533 77.0605 14.484C76.7805 14.6053 76.5471 14.778 76.3605 15.002C76.1831 15.226 76.0478 15.4873 75.9545 15.786C75.8611 16.0753 75.8145 16.388 75.8145 16.724C75.8145 17.06 75.8658 17.3773 75.9685 17.676C76.0805 17.9653 76.2298 18.222 76.4165 18.446C76.6125 18.67 76.8458 18.8473 77.1165 18.978C77.3871 19.0993 77.6905 19.16 78.0265 19.16C78.7451 19.16 79.3005 18.8893 79.6925 18.348L80.5045 19.118C80.1871 19.482 79.8138 19.748 79.3845 19.916C78.9551 20.084 78.5025 20.168 78.0265 20.168C77.5225 20.168 77.0605 20.084 76.6405 19.916C76.2205 19.748 75.8611 19.51 75.5625 19.202C75.2731 18.894 75.0445 18.53 74.8765 18.11C74.7178 17.69 74.6385 17.228 74.6385 16.724C74.6385 16.2293 74.7178 15.772 74.8765 15.352C75.0445 14.932 75.2778 14.568 75.5765 14.26C75.8751 13.952 76.2298 13.714 76.6405 13.546C77.0605 13.3687 77.5225 13.28 78.0265 13.28C78.5118 13.28 78.9691 13.364 79.3985 13.532C79.8371 13.7 80.2198 13.9613 80.5465 14.316L79.6785 15.086ZM81.7704 9.416H82.8624V14.358H82.8904C82.965 14.2273 83.0677 14.1013 83.1984 13.98C83.329 13.8493 83.483 13.7327 83.6604 13.63C83.847 13.5273 84.0524 13.4433 84.2764 13.378C84.5004 13.3127 84.7384 13.28 84.9904 13.28C85.4197 13.28 85.7884 13.3453 86.0964 13.476C86.4137 13.6067 86.675 13.7887 86.8804 14.022C87.0857 14.2553 87.235 14.54 87.3284 14.876C87.431 15.2027 87.4824 15.562 87.4824 15.954V20H86.3904V16.066C86.3904 15.5153 86.269 15.0813 86.0264 14.764C85.7837 14.4467 85.4057 14.288 84.8924 14.288C84.5377 14.288 84.2297 14.3487 83.9684 14.47C83.7164 14.5913 83.5064 14.764 83.3384 14.988C83.1797 15.212 83.0584 15.478 82.9744 15.786C82.8997 16.094 82.8624 16.4347 82.8624 16.808V20H81.7704V9.416Z" fill="black"/>
<path d="M33.4249 22.3951L29.1409 17.9395C30.2424 16.6301 30.8459 14.9826 30.8459 13.2675C30.8459 9.26026 27.5856 6 23.5784 6C19.5712 6 16.3109 9.26026 16.3109 13.2675C16.3109 17.2747 19.5712 20.535 23.5784 20.535C25.0828 20.535 26.5164 20.0812 27.742 19.2199L32.0586 23.7093C32.239 23.8967 32.4817 24 32.7418 24C32.9879 24 33.2214 23.9062 33.3987 23.7355C33.7753 23.3731 33.7873 22.7721 33.4249 22.3951ZM23.5784 7.89587C26.5404 7.89587 28.95 10.3055 28.95 13.2675C28.95 16.2295 26.5404 18.6391 23.5784 18.6391C20.6164 18.6391 18.2068 16.2295 18.2068 13.2675C18.2068 10.3055 20.6164 7.89587 23.5784 7.89587Z" fill="#868686"/>
</svg>
